<svg width="20" height="20" viewBox="0 0 20 20" fill="none" xmlns="http://www.w3.org/2000/svg">
<path d="M19.375 5.93751C19.375 5.35735 19.1445 4.80095 18.7343 4.39071C18.3241 3.98047 17.7677 3.75001 17.1875 3.75001H8.59805C8.41308 3.7506 8.23212 3.69621 8.07812 3.59376L6.99219 2.86758C6.63259 2.62712 6.20954 2.49916 5.77695 2.5H2.8125C2.23234 2.5 1.67594 2.73047 1.2657 3.14071C0.855468 3.55095 0.625 4.10734 0.625 4.68751V6.56251C0.625 6.64539 0.657924 6.72487 0.716529 6.78348C0.775134 6.84208 0.85462 6.87501 0.9375 6.87501H19.0625C19.1454 6.87501 19.2249 6.84208 19.2835 6.78348C19.3421 6.72487 19.375 6.64539 19.375 6.56251V5.93751ZM0.625 15.3125C0.625 15.8927 0.855468 16.4491 1.2657 16.8593C1.67594 17.2696 2.23234 17.5 2.8125 17.5H17.1875C17.7677 17.5 18.3241 17.2696 18.7343 16.8593C19.1445 16.4491 19.375 15.8927 19.375 15.3125V8.43751C19.375 8.35463 19.3421 8.27514 19.2835 8.21654C19.2249 8.15793 19.1454 8.12501 19.0625 8.12501H0.9375C0.85462 8.12501 0.775134 8.15793 0.716529 8.21654C0.657924 8.27514 0.625 8.35463 0.625 8.43751V15.3125Z" fill="#0277FA"/>
</svg>
