<svg width="40" height="40" viewBox="0 0 40 40" fill="none" xmlns="http://www.w3.org/2000/svg">
<rect width="40" height="40" rx="8" fill="white"/>
<path d="M25.1799 30.3915L25.1033 30.5134C24.5282 31.429 23.7714 32.1812 22.8893 32.7029C22.0066 33.225 21.0252 33.5 20.0258 33.5C19.0263 33.5 18.045 33.225 17.1623 32.7029C16.2802 32.1813 15.5235 31.4291 14.9483 30.5135C14.9483 30.5135 14.9483 30.5135 14.9483 30.5134L7.70002 18.9821L25.1799 30.3915ZM25.1799 30.3915L25.1799 30.3891M25.1799 30.3915L25.1799 30.3891M25.1799 30.3891L32.352 18.9853C32.352 18.9853 32.352 18.9853 32.352 18.9853C33.0293 17.9087 33.4339 16.6406 33.5269 15.3221C33.6199 14.0036 33.3983 12.6783 32.8833 11.4921C32.3682 10.3057 31.5767 9.29855 30.5881 8.58995C29.5984 7.88061 28.4513 7.49987 27.2746 7.50001C27.2746 7.50001 27.2746 7.50001 27.2745 7.50001L12.7775 7.50001L12.777 7.50001L12.777 8.00001M25.1799 30.3891L7.69953 18.9813L8.12285 18.7153C7.48996 17.7125 7.10809 16.5244 7.01978 15.2833C6.93147 14.0423 7.14017 12.797 7.62266 11.6862C8.10515 10.5754 8.84247 9.64258 9.75251 8.99176C10.6625 8.34093 11.7096 7.9976 12.777 8.00001M12.777 8.00001L27.2746 8.00001L12.777 8.00001ZM17.4978 26.2571L17.4978 26.2638L11.1723 16.206L11.1721 16.2057C10.9427 15.8415 10.8007 15.4038 10.7679 14.9409C10.7351 14.478 10.8134 14.016 10.9906 13.6077C11.1677 13.1995 11.4339 12.8673 11.7507 12.6402C12.0664 12.414 12.4214 12.2996 12.7768 12.2997L12.777 12.2997L27.2746 12.2997L27.2746 12.2998L27.2808 12.2997C27.6346 12.2953 27.989 12.4071 28.3036 12.6328C28.6194 12.8593 28.8838 13.1928 29.0569 13.6028L29.0569 13.6028L29.0599 13.6097C29.2128 13.9572 29.2948 14.3453 29.2965 14.7419C29.2939 15.2735 29.1455 15.7838 28.8811 16.1982L28.8811 16.1981L28.8793 16.2009L21.6305 27.7268L21.6304 27.727C21.4361 28.0362 21.1869 28.28 20.9081 28.4449C20.6299 28.6095 20.3279 28.6923 20.0258 28.6923C19.7237 28.6923 19.4217 28.6095 19.1435 28.4449C18.8647 28.28 18.6155 28.0362 18.4212 27.727L17.4978 26.2571Z" fill="#0277FA" stroke="#0277FA"/>
</svg>
