<svg width="148" height="40" viewBox="0 0 148 40" fill="none" xmlns="http://www.w3.org/2000/svg">
<rect width="40" height="40" rx="8" fill="white"/>
<path d="M25.1799 30.3915L25.1033 30.5134C24.5282 31.429 23.7714 32.1812 22.8893 32.7029C22.0066 33.225 21.0252 33.5 20.0258 33.5C19.0263 33.5 18.045 33.225 17.1623 32.7029C16.2802 32.1813 15.5235 31.4291 14.9483 30.5135C14.9483 30.5135 14.9483 30.5135 14.9483 30.5134L7.70002 18.9821L25.1799 30.3915ZM25.1799 30.3915L25.1799 30.3891M25.1799 30.3915L25.1799 30.3891M25.1799 30.3891L32.352 18.9853C32.352 18.9853 32.352 18.9853 32.352 18.9853C33.0293 17.9087 33.4339 16.6406 33.5269 15.3221C33.6199 14.0036 33.3983 12.6783 32.8833 11.4921C32.3682 10.3057 31.5767 9.29855 30.5881 8.58995C29.5984 7.88061 28.4513 7.49987 27.2746 7.50001C27.2746 7.50001 27.2746 7.50001 27.2745 7.50001L12.7775 7.50001L12.777 7.50001L12.777 8.00001M25.1799 30.3891L7.69953 18.9813L8.12285 18.7153C7.48996 17.7125 7.10809 16.5244 7.01978 15.2833C6.93147 14.0423 7.14017 12.797 7.62266 11.6862C8.10515 10.5754 8.84247 9.64258 9.75251 8.99176C10.6625 8.34093 11.7096 7.9976 12.777 8.00001M12.777 8.00001L27.2746 8.00001L12.777 8.00001ZM17.4978 26.2571L17.4978 26.2638L11.1723 16.206L11.1721 16.2057C10.9427 15.8415 10.8007 15.4038 10.7679 14.9409C10.7351 14.478 10.8134 14.016 10.9906 13.6077C11.1677 13.1995 11.4339 12.8673 11.7507 12.6402C12.0664 12.414 12.4214 12.2996 12.7768 12.2997L12.777 12.2997L27.2746 12.2997L27.2746 12.2998L27.2808 12.2997C27.6346 12.2953 27.989 12.4071 28.3036 12.6328C28.6194 12.8593 28.8838 13.1928 29.0569 13.6028L29.0569 13.6028L29.0599 13.6097C29.2128 13.9572 29.2948 14.3453 29.2965 14.7419C29.2939 15.2735 29.1455 15.7838 28.8811 16.1982L28.8811 16.1981L28.8793 16.2009L21.6305 27.7268L21.6304 27.727C21.4361 28.0362 21.1869 28.28 20.9081 28.4449C20.6299 28.6095 20.3279 28.6923 20.0258 28.6923C19.7237 28.6923 19.4217 28.6095 19.1435 28.4449C18.8647 28.28 18.6155 28.0362 18.4212 27.727L17.4978 26.2571Z" fill="#0277FA" stroke="#0277FA"/>
<path d="M66.2393 25.7168V18.0137C66.2393 17.4714 66.1562 17.0065 65.9902 16.6191C65.8242 16.2318 65.5641 15.9274 65.21 15.7061C64.8558 15.4847 64.3965 15.374 63.832 15.374C63.3561 15.374 62.9411 15.457 62.5869 15.623C62.2438 15.7891 61.9782 16.027 61.79 16.3369C61.613 16.6468 61.5244 17.0286 61.5244 17.4824H56.3447C56.3447 16.6745 56.5273 15.9219 56.8926 15.2246C57.2578 14.5273 57.778 13.9131 58.4531 13.3818C59.1393 12.8506 59.9583 12.4411 60.9102 12.1533C61.862 11.8545 62.93 11.7051 64.1143 11.7051C65.5199 11.7051 66.7705 11.943 67.8662 12.4189C68.973 12.8838 69.8473 13.5866 70.4893 14.5273C71.1312 15.457 71.4521 16.6302 71.4521 18.0469V25.5674C71.4521 26.652 71.513 27.5042 71.6348 28.124C71.7676 28.7327 71.9557 29.264 72.1992 29.7178V30H66.9697C66.7262 29.4798 66.5436 28.8379 66.4219 28.0742C66.3001 27.2995 66.2393 26.5137 66.2393 25.7168ZM66.8867 19.043L66.9199 21.8984H64.3467C63.7712 21.8984 63.2731 21.9704 62.8525 22.1143C62.443 22.2581 62.111 22.4574 61.8564 22.7119C61.6019 22.9554 61.4137 23.2432 61.292 23.5752C61.1813 23.8962 61.126 24.2503 61.126 24.6377C61.126 25.0029 61.2145 25.335 61.3916 25.6338C61.5687 25.9215 61.8122 26.1484 62.1221 26.3145C62.432 26.4805 62.7917 26.5635 63.2012 26.5635C63.8763 26.5635 64.4518 26.4307 64.9277 26.165C65.4147 25.8994 65.791 25.5785 66.0566 25.2021C66.3223 24.8148 66.4551 24.4551 66.4551 24.123L67.7002 26.2812C67.501 26.724 67.2575 27.1833 66.9697 27.6592C66.682 28.124 66.3167 28.5612 65.874 28.9707C65.4313 29.3691 64.8945 29.6956 64.2637 29.9502C63.6439 30.2048 62.8968 30.332 62.0225 30.332C60.8936 30.332 59.8698 30.1051 58.9512 29.6514C58.0326 29.1865 57.2965 28.5501 56.7432 27.7422C56.2008 26.9342 55.9297 26.0046 55.9297 24.9531C55.9297 24.0124 56.1012 23.1768 56.4443 22.4463C56.7874 21.7158 57.3021 21.096 57.9883 20.5869C58.6855 20.0778 59.5599 19.696 60.6113 19.4414C61.6628 19.1758 62.8913 19.043 64.2969 19.043H66.8867ZM83.3223 30.332C81.8945 30.332 80.6162 30.1051 79.4873 29.6514C78.3584 29.1976 77.401 28.5723 76.6152 27.7754C75.8405 26.9674 75.2484 26.0378 74.8389 24.9863C74.4294 23.9349 74.2246 22.8115 74.2246 21.6162V20.9854C74.2246 19.6462 74.4128 18.4121 74.7891 17.2832C75.1654 16.1543 75.7132 15.1748 76.4326 14.3447C77.1631 13.5036 78.0596 12.8561 79.1221 12.4023C80.1846 11.9375 81.3965 11.7051 82.7578 11.7051C84.0306 11.7051 85.165 11.9154 86.1611 12.3359C87.1572 12.7454 87.9984 13.3376 88.6846 14.1123C89.3708 14.876 89.891 15.8001 90.2451 16.8848C90.6104 17.9583 90.793 19.1647 90.793 20.5039V22.6289H76.3164V19.292H85.7129V18.8936C85.7129 18.2627 85.5967 17.7093 85.3643 17.2334C85.1429 16.7575 84.8109 16.3923 84.3682 16.1377C83.9365 15.8721 83.3887 15.7393 82.7246 15.7393C82.0938 15.7393 81.568 15.8721 81.1475 16.1377C80.7269 16.4033 80.3893 16.7796 80.1348 17.2666C79.8913 17.7425 79.7142 18.3014 79.6035 18.9434C79.4928 19.5742 79.4375 20.2549 79.4375 20.9854V21.6162C79.4375 22.3135 79.5316 22.9499 79.7197 23.5254C79.9079 24.1009 80.1846 24.5934 80.5498 25.0029C80.915 25.4124 81.3577 25.7334 81.8779 25.9658C82.3981 26.1982 82.9902 26.3145 83.6543 26.3145C84.4733 26.3145 85.2536 26.1595 85.9951 25.8496C86.7367 25.5286 87.3786 25.0306 87.9209 24.3555L90.3447 27.1279C89.9795 27.6592 89.4648 28.1738 88.8008 28.6719C88.1478 29.1589 87.362 29.5573 86.4434 29.8672C85.5247 30.1771 84.4844 30.332 83.3223 30.332ZM104.639 12.0371H109.354V29.3525C109.354 31.0016 108.977 32.4017 108.225 33.5527C107.483 34.7038 106.448 35.5781 105.12 36.1758C103.792 36.7734 102.237 37.0723 100.455 37.0723C99.6803 37.0723 98.8724 36.9671 98.0312 36.7568C97.1901 36.5576 96.3988 36.2533 95.6572 35.8438C94.9157 35.4453 94.2959 34.9362 93.7979 34.3164L96.0059 31.2617C96.515 31.8372 97.1237 32.3021 97.832 32.6562C98.5404 33.0215 99.3483 33.2041 100.256 33.2041C101.086 33.2041 101.789 33.0547 102.364 32.7559C102.94 32.457 103.377 32.0199 103.676 31.4443C103.986 30.8688 104.141 30.1715 104.141 29.3525V16.2373L104.639 12.0371ZM92.6357 21.2344V20.8857C92.6357 19.5244 92.8018 18.2848 93.1338 17.167C93.4658 16.0381 93.9473 15.0697 94.5781 14.2617C95.2201 13.4427 95.9893 12.8118 96.8857 12.3691C97.7933 11.9264 98.8115 11.7051 99.9404 11.7051C101.158 11.7051 102.165 11.9375 102.962 12.4023C103.759 12.8561 104.406 13.498 104.904 14.3281C105.402 15.1471 105.795 16.1156 106.083 17.2334C106.371 18.3402 106.603 19.541 106.78 20.8359V21.4336C106.603 22.6732 106.349 23.8298 106.017 24.9033C105.685 25.9769 105.253 26.9232 104.722 27.7422C104.19 28.5501 103.526 29.1865 102.729 29.6514C101.944 30.1051 101.003 30.332 99.9072 30.332C98.7894 30.332 97.7822 30.1051 96.8857 29.6514C95.9893 29.1976 95.2201 28.5612 94.5781 27.7422C93.9473 26.9232 93.4658 25.9603 93.1338 24.8535C92.8018 23.7467 92.6357 22.5404 92.6357 21.2344ZM97.8154 20.8857V21.2344C97.8154 21.9427 97.8818 22.6012 98.0146 23.21C98.1585 23.8187 98.3688 24.3555 98.6455 24.8203C98.9333 25.2852 99.2874 25.6504 99.708 25.916C100.14 26.1706 100.643 26.2979 101.219 26.2979C102.06 26.2979 102.741 26.1208 103.261 25.7666C103.792 25.4014 104.179 24.8978 104.423 24.2559C104.677 23.6139 104.81 22.8669 104.821 22.0146V20.2715C104.821 19.5632 104.749 18.9268 104.605 18.3623C104.462 17.7979 104.246 17.3219 103.958 16.9346C103.681 16.5472 103.316 16.2539 102.862 16.0547C102.42 15.8444 101.883 15.7393 101.252 15.7393C100.688 15.7393 100.189 15.8721 99.7578 16.1377C99.3262 16.3923 98.9665 16.752 98.6787 17.2168C98.391 17.6816 98.1751 18.2295 98.0312 18.8604C97.8874 19.4801 97.8154 20.1553 97.8154 20.8857ZM118.269 12.0371V30H113.072V12.0371H118.269ZM112.757 7.38867C112.757 6.63607 113.022 6.02181 113.554 5.5459C114.085 5.05892 114.782 4.81543 115.646 4.81543C116.509 4.81543 117.206 5.05892 117.737 5.5459C118.28 6.02181 118.551 6.63607 118.551 7.38867C118.551 8.13021 118.28 8.74447 117.737 9.23145C117.206 9.70736 116.509 9.94531 115.646 9.94531C114.782 9.94531 114.085 9.70736 113.554 9.23145C113.022 8.74447 112.757 8.13021 112.757 7.38867ZM131.566 25.0029C131.566 24.6709 131.461 24.3776 131.251 24.123C131.052 23.8685 130.687 23.6361 130.155 23.4258C129.635 23.2155 128.899 23.0052 127.947 22.7949C127.051 22.6068 126.215 22.3633 125.44 22.0645C124.666 21.7546 123.991 21.3838 123.415 20.9521C122.84 20.5094 122.391 19.9893 122.07 19.3916C121.749 18.7829 121.589 18.0911 121.589 17.3164C121.589 16.5638 121.749 15.8499 122.07 15.1748C122.402 14.4997 122.878 13.902 123.498 13.3818C124.129 12.8617 124.893 12.4521 125.789 12.1533C126.697 11.8545 127.726 11.7051 128.877 11.7051C130.46 11.7051 131.826 11.9541 132.978 12.4521C134.129 12.9391 135.014 13.6253 135.634 14.5107C136.254 15.3851 136.563 16.3867 136.563 17.5156H131.384C131.384 17.0508 131.295 16.6468 131.118 16.3037C130.941 15.9606 130.67 15.695 130.305 15.5068C129.939 15.3076 129.458 15.208 128.86 15.208C128.396 15.208 127.986 15.291 127.632 15.457C127.289 15.612 127.018 15.8278 126.818 16.1045C126.63 16.3812 126.536 16.7021 126.536 17.0674C126.536 17.3219 126.591 17.5544 126.702 17.7646C126.824 17.9639 127.007 18.152 127.25 18.3291C127.505 18.4951 127.831 18.6445 128.229 18.7773C128.639 18.9102 129.137 19.0374 129.724 19.1592C130.974 19.3916 132.114 19.7181 133.144 20.1387C134.184 20.5592 135.014 21.1403 135.634 21.8818C136.265 22.6234 136.58 23.6029 136.58 24.8203C136.58 25.6172 136.397 26.3477 136.032 27.0117C135.678 27.6758 135.163 28.2568 134.488 28.7549C133.813 29.2529 133.005 29.6403 132.064 29.917C131.124 30.1937 130.061 30.332 128.877 30.332C127.184 30.332 125.75 30.0277 124.577 29.4189C123.404 28.8102 122.519 28.0465 121.921 27.1279C121.334 26.1982 121.041 25.2464 121.041 24.2725H125.905C125.927 24.8701 126.077 25.3571 126.354 25.7334C126.641 26.1097 127.012 26.3864 127.466 26.5635C127.92 26.7295 128.429 26.8125 128.993 26.8125C129.558 26.8125 130.028 26.735 130.404 26.5801C130.781 26.4251 131.068 26.2148 131.268 25.9492C131.467 25.6725 131.566 25.3571 131.566 25.0029Z" fill="white"/>
</svg>
